<svg height="200" width="200" xmlns="http://www.w3.org/2000/svg" viewBox="0 0 490 490"
  xml:space="preserve"><g stroke-width="0"/><g stroke-linecap="round" stroke-linejoin="round"/><path d="M393.872 454.517a9.9 9.9 0 0 1-6.412-2.354l-99.315-84.194H68.115C30.556 367.968 0 337.242 0 299.474V103.977c0-37.768 30.556-68.494 68.115-68.494h353.77c37.559 0 68.115 30.727 68.115 68.494v195.497c0 37.768-30.556 68.494-68.115 68.494h-18.071v76.549a10 10 0 0 1-5.752 9.067 9.9 9.9 0 0 1-4.19.933M68.115 55.483c-26.592 0-48.226 21.754-48.226 48.494v195.497c0 26.739 21.634 48.494 48.226 48.494h223.662a9.92 9.92 0 0 1 6.411 2.354l85.737 72.685v-65.039c0-5.523 4.453-10 9.945-10h28.015c26.592 0 48.226-21.755 48.226-48.494V103.977c0-26.74-21.634-48.494-48.226-48.494z"/><path d="M405.168 147.469H84.832c-5.492 0-9.944-4.478-9.944-10s4.452-10 9.944-10h320.335c5.492 0 9.944 4.477 9.944 10s-4.451 10-9.943 10m0 64.034H84.832c-5.492 0-9.944-4.478-9.944-10s4.452-10 9.944-10h320.335c5.492 0 9.944 4.477 9.944 10s-4.451 10-9.943 10m0 64.035H84.832c-5.492 0-9.944-4.478-9.944-10s4.452-10 9.944-10h320.335c5.492 0 9.944 4.476 9.944 10 0 5.522-4.451 10-9.943 10"/></svg>