<svg viewBox="6.676 2.595 620 85" xmlns="http://www.w3.org/2000/svg">
    <path
        d="M96.667 21.495v56.169H83.11V21.495H67.044V9.081h46.364l-1.412 12.414zm35.203 34.447q.452 4.299 1.879 6.951 1.422 2.653 3.654 3.864 2.239 1.209 5.002 1.21 3.019 0 5.831-1.179a25 25 0 0 0 5.418-3.181l5.248 8.519q-3.103 3.165-7.504 5.198-4.41 2.014-10.017 2.017-7.533-.001-12.608-3.583-5.083-3.587-7.647-9.87t-2.565-14.446q-.004-7.773 2.474-14.12 2.487-6.36 7.258-10.147 4.779-3.786 11.675-3.787 6.285 0 10.886 3.212 4.61 3.212 7.154 9.248 2.536 6.038 2.54 14.508 0 1.336-.066 2.869-.043 1.363-.182 2.717zm8.098-22.066q-3.515 0-5.662 3.026-2.14 3.014-2.605 9.635h16.121q-.039-5.736-1.867-9.2c-1.21-2.304-3.206-3.461-5.987-3.461m53.436 33.144a10.6 10.6 0 0 0 5.053-1.257q2.382-1.255 4.744-3.244l5.817 9.901q-2.889 2.965-7.049 4.949c-2.766 1.311-5.853 1.971-9.265 1.971q-7.075 0-12.155-3.476-5.081-3.488-7.813-9.697-2.721-6.222-2.721-14.431-.002-8.205 2.785-14.619 2.786-6.403 7.931-10.067c3.427-2.442 7.504-3.663 12.22-3.663q4.999 0 8.904 1.661 3.896 1.646 7.163 4.917l-5.662 9.404a18.4 18.4 0 0 0-4.703-2.916 13.3 13.3 0 0 0-5.17-1.04q-4.422.002-7.126 3.74-2.711 3.724-2.708 12.584 0 5.789 1.282 9.14 1.28 3.338 3.486 4.749 2.215 1.398 4.989 1.395m39.375-64.315v27.603q2.77-3.502 6.012-5.214a14.6 14.6 0 0 1 6.882-1.706q5.867.002 8.966 4.111 3.095 4.098 3.098 11.575v38.589H244.69V43.42q0-4.746-.893-6.625-.897-1.876-3.331-1.878-1.363 0-2.669.776-1.297.759-2.541 2.205-1.231 1.428-2.475 3.396v36.37h-13.062V4.24zm38.43 74.959V9.081h13.554v55.768h24.842l-1.414 12.816zm59.008-21.722q.452 4.299 1.879 6.951 1.422 2.653 3.654 3.864 2.24 1.209 5.003 1.21 3.018 0 5.829-1.179a25 25 0 0 0 5.418-3.181l5.248 8.519q-3.104 3.165-7.502 5.198-4.41 2.014-10.017 2.017-7.533-.001-12.61-3.583-5.083-3.587-7.646-9.87-2.566-6.284-2.565-14.446-.004-7.773 2.475-14.12 2.485-6.36 7.255-10.147 4.779-3.786 11.677-3.787 6.281 0 10.883 3.212 4.612 3.212 7.155 9.248 2.536 6.038 2.539 14.508 0 1.336-.065 2.869a37 37 0 0 1-.182 2.717zm8.101-22.066q-3.518 0-5.664 3.026-2.14 3.014-2.605 9.635h16.119q-.036-5.736-1.865-9.2c-1.211-2.304-3.207-3.461-5.985-3.461m67.106 28.643q-.002 2.982.688 4.315.682 1.338 2.215 2.017l-2.695 10.303q-3.876-.452-6.544-2.048-2.673-1.614-4.199-4.887-2.516 3.617-6.44 5.368c-3.924 1.75-5.294 1.754-8.021 1.754q-6.78-.001-10.808-4.623-4.032-4.622-4.03-11.903 0-8.546 5.597-13.204 5.595-4.654 15.771-4.654h5.909v-1.971q0-4.107-2.216-6.082-2.206-1.986-6.467-1.986-2.1.002-5.415.714a40.5 40.5 0 0 0-6.609 2.048l-3.02-10.381a43 43 0 0 1 8.864-2.915q4.611-.992 8.254-.994 9.794 0 14.473 4.779 4.692 4.766 4.693 13.778zm-20.488 5.65q2.098 0 4.406-1.507 2.318-1.519 3.525-4.282v-8.518h-3.227q-5.457 0-8.021 2.001-2.556 2.002-2.554 5.865-.004 3.028 1.541 4.734 1.554 1.709 4.328 1.707m58.101-65.574 13.048 1.645v73.423h-11.57l-.662-5.786q-1.814 3.073-4.832 5.274-3.024 2.191-7.309 2.189-5.457-.001-9.03-3.507-3.58-3.503-5.341-9.823-1.749-6.312-1.749-14.771 0-8.114 2.1-14.4c1.405-4.191 3.421-7.479 6.036-9.869q3.927-3.584 9.345-3.585 2.926.004 5.456 1.242c1.69.825 3.224 2.05 4.509 3.603zm-6.453 32.212q-3.383.002-5.455 3.849-2.061 3.832-2.061 12.676 0 6.49.868 10.087.866 3.584 2.398 5.026c1.016.954 2.19 1.428 3.51 1.428q2.189 0 3.98-1.629 1.798-1.642 3.213-4.468V39.122q-1.376-2.03-2.902-3.167-1.533-1.146-3.551-1.148m40.865 33.501q0-3.007 1.244-5.509 1.245-2.498 3.345-4.003 2.107-1.519 4.626-1.519 2.563 0 4.651 1.519c1.37.981 2.514 2.357 3.331 4.003q1.243 2.503 1.243 5.509 0 2.981-1.243 5.509-1.245 2.518-3.331 4.018a7.8 7.8 0 0 1-4.651 1.506q-2.518-.002-4.627-1.506c-1.381-.976-2.533-2.362-3.342-4.018q-1.244-2.528-1.244-5.509m72.239-44.921q3.135 0 5.156 1.581 2.032 1.584 3.019 4.982.997 3.388.997 8.813v38.901h-11.196V40.548q-.001-2.759-.44-3.894-.429-1.146-1.75-1.148-1.04 0-2.137.715-1.087.715-2.411 2.699v38.744h-9.173V40.548q-.002-2.756-.441-3.894-.427-1.146-1.748-1.148-1.043 0-2.14.715-1.089.715-2.409 2.699v38.744h-11.368V25.11h9.589l.868 5.105q2.059-3.365 4.172-5.09 2.109-1.734 5.003-1.737 2.473.002 4.224 1.505 1.758 1.506 2.514 4.718 1.98-2.76 4.379-4.486 2.398-1.734 5.288-1.737m54.086 39.131q-.001 2.982.688 4.315.683 1.338 2.216 2.017l-2.695 10.303q-3.88-.452-6.544-2.048-2.674-1.614-4.198-4.887-2.518 3.617-6.441 5.368c-3.926 1.75-5.294 1.754-8.022 1.754q-6.78-.001-10.808-4.623-4.031-4.622-4.031-11.903 0-8.546 5.6-13.204 5.595-4.654 15.771-4.654h5.908v-1.971q.001-4.107-2.216-6.082-2.206-1.986-6.467-1.986-2.1.002-5.417.714a40.5 40.5 0 0 0-6.608 2.048l-3.018-10.381a42.7 42.7 0 0 1 8.862-2.915q4.61-.992 8.255-.994 9.794 0 14.474 4.779 4.69 4.766 4.691 13.778zm-20.486 5.65q2.098 0 4.406-1.507 2.317-1.519 3.524-4.282v-8.518h-3.225q-5.457 0-8.021 2.001-2.555 2.002-2.555 5.865-.001 3.028 1.543 4.734 1.553 1.709 4.327 1.707M12.87 16.087l34.623 25.65V53.73L13 79.379l-6.324-11.39 28.78-20.265-28.78-19.612zm0 0"
        fill="currentColor" />
</svg>